<svg width="33.962" xmlns="http://www.w3.org/2000/svg" height="34.324" id="screenshot-f406de40-a14c-11ec-b55d-cdf0480143a0" viewBox="-3789 1426.7 33.962 34.324" style="-webkit-print-color-adjust::exact" xmlns:xlink="http://www.w3.org/1999/xlink" fill="none" version="1.1">
  <g id="shape-f406de40-a14c-11ec-b55d-cdf0480143a0">
    <g fill="none">
      <g class="fills" id="fills-f406de40-a14c-11ec-b55d-cdf0480143a0">
        <rect rx="0" ry="0" x="-3789" y="1426.699847312062" width="33.9617815277652" height="34.32435598962866" transform="matrix(1.000000, 0.000000, 0.000000, 1.000000, 0.000000, 0.000000)" class="frame-background">
        </rect>
      </g>
      <g class="frame-children">
        <g id="shape-f406de4b-a14c-11ec-b55d-cdf0480143a0">
          <g class="fills" id="fills-f406de4b-a14c-11ec-b55d-cdf0480143a0">
            <rect rx="17" ry="17" x="-3789" y="1426.8433418428622" transform="matrix(1.000000, 0.000000, 0.000000, 1.000000, 0.000000, 0.000000)" width="34" height="34" style="fill:#ffffff;fill-opacity:1">
            </rect>
          </g>
          <g id="strokes-f406de4b-a14c-11ec-b55d-cdf0480143a0" class="strokes">
            <g class="stroke-shape">
              <rect rx="17" ry="17" x="-3789" y="1426.8433418428622" transform="matrix(1.000000, 0.000000, 0.000000, 1.000000, 0.000000, 0.000000)" width="34" height="34" style="fill:none;fill-opacity:none;stroke-width:3;stroke:#2a4252;stroke-opacity:1">
              </rect>
            </g>
          </g>
        </g>
        <g id="shape-d4dbe730-b0c5-11ec-b760-a35c11c33444">
          <g class="fills" id="fills-d4dbe730-b0c5-11ec-b760-a35c11c33444">
            <path d="M-3762.016,1457.524C-3764.855,1459.723,-3768.369,1461.024,-3772.172,1461.024L-3772.172,1461.024L-3772.172,1461.024L-3772.172,1461.024L-3772.172,1461.024L-3772.172,1461.024L-3772.172,1461.024L-3772.172,1461.024L-3772.172,1461.024L-3772.172,1461.024L-3772.172,1461.024L-3772.172,1461.024L-3772.172,1461.024L-3772.172,1461.024L-3772.172,1461.024L-3772.172,1461.024L-3772.172,1461.024C-3775.809,1461.024,-3779.240,1459.556,-3782.012,1457.527L-3782.022,1457.524L-3776.340,1439.073C-3776.340,1439.073,-3778.227,1437.128,-3776.340,1435.830C-3774.453,1434.533,-3773.824,1437.776,-3773.824,1437.776L-3769.422,1437.776C-3769.422,1437.776,-3768.705,1434.957,-3766.906,1435.830C-3765.383,1436.570,-3766.906,1439.073,-3766.906,1439.073L-3762.016,1457.524Z" style="fill:#2a4252;fill-opacity:1">
            </path>
          </g>
          <g id="strokes-d4dbe730-b0c5-11ec-b760-a35c11c33444" class="strokes">
            <g class="stroke-shape">
              <path d="M-3762.016,1457.524C-3764.855,1459.723,-3768.369,1461.024,-3772.172,1461.024L-3772.172,1461.024L-3772.172,1461.024L-3772.172,1461.024L-3772.172,1461.024L-3772.172,1461.024L-3772.172,1461.024L-3772.172,1461.024L-3772.172,1461.024L-3772.172,1461.024L-3772.172,1461.024L-3772.172,1461.024L-3772.172,1461.024L-3772.172,1461.024L-3772.172,1461.024L-3772.172,1461.024L-3772.172,1461.024C-3775.809,1461.024,-3779.240,1459.556,-3782.012,1457.527L-3782.022,1457.524L-3776.340,1439.073C-3776.340,1439.073,-3778.227,1437.128,-3776.340,1435.830C-3774.453,1434.533,-3773.824,1437.776,-3773.824,1437.776L-3769.422,1437.776C-3769.422,1437.776,-3768.705,1434.957,-3766.906,1435.830C-3765.383,1436.570,-3766.906,1439.073,-3766.906,1439.073L-3762.016,1457.524Z" style="fill:none;fill-opacity:none">
              </path>
            </g>
          </g>
        </g>
      </g>
    </g>
  </g>
</svg>